<?xml version="1.0" encoding="UTF-8" standalone="no"?> <!-- Created with Vectornator for iOS (http://vectornator.io/) --><!DOCTYPE svg PUBLIC "-//W3C//DTD SVG 1.1//EN" "http://www.w3.org/Graphics/SVG/1.1/DTD/svg11.dtd">
<svg xmlns:vectornator="http://vectornator.io" height="100%" style="fill-rule:nonzero;clip-rule:evenodd;stroke-linecap:round;stroke-linejoin:round;" viewBox="0 0 283.44 283.44" width="100%" xmlns="http://www.w3.org/2000/svg" version="1.1" xml:space="preserve" xmlns:xlink="http://www.w3.org/1999/xlink">
<metadata>
<vectornator:setting value="true" key="WDDisplayWhiteBackground"/>
<vectornator:setting key="VNDimensionsVisible" value="true"/>
<vectornator:setting value="true" key="WDCMYKEnabledKey"/>
<vectornator:setting value="Millimeters" key="WDUnits"/>
<vectornator:setting key="UndoHistoryDisabled" value="false"/>
<vectornator:setting value="true" key="VNSnapToGuides"/>
<vectornator:setting key="WDSnapToGrid" value="false"/>
<vectornator:setting value="true" key="WDDynamicGuides"/>
<vectornator:setting value="false" key="WDSnapToEdges"/>
<vectornator:setting key="WDRulersVisible" value="true"/>
<vectornator:setting key="WDGuidesVisible" value="true"/>
<vectornator:setting value="false" key="IsTimeLapseWatermarkDisabled"/>
<vectornator:setting key="WDIsolateActiveLayer" value="false"/>
<vectornator:setting value="false" key="WDSnapToPoints"/>
<vectornator:setting key="WDOutlineMode" value="false"/>
</metadata>
<defs/>
<g id="SOMBRA 2" vectornator:layerName="SOMBRA 2">
<g opacity="1">
<path stroke-linecap="round" stroke-linejoin="round" fill="#432f76" stroke="#432f76" d="M25.0645+137.505C25.0645+72.9276+77.2929+20.5777+141.72+20.5777C206.147+20.5777+258.376+72.9276+258.376+137.505C258.376+202.081+206.147+254.431+141.72+254.431C77.2929+254.431+25.0645+202.081+25.0645+137.505Z" opacity="1" stroke-width="1"/>
<path fill="#ffeae1" stroke-linecap="round" stroke-linejoin="round" d="M174.621+33.1889C173.288+32.5714+165.072+36.3708+161.661+40.2365C158.424+43.9047+156.283+48.1854+156.283+48.1854C156.283+48.1854+136.362+44.0936+119.447+59.1124C119.447+59.1124+109.375+70.4913+98.673+78.148C93.7672+81.6579+88.7063+84.0939+83.8143+84.6704C78.0346+85.3516+73.7642+83.9251+73.7642+83.9251C73.7642+83.9251+73.0589+88.4683+75.9343+92.2636C78.8097+96.0589+84.84+98.891+84.84+98.891C84.84+98.891+75.786+101.699+69.558+105.458C60.0237+111.212+50.7908+120.193+47.9804+130.32C43.654+145.911+51.7944+151.624+50.5058+153.144C42.4459+162.652+32.9664+167.849+32.9664+167.849C32.9664+167.849+37.8189+170.377+42.5139+171.032C47.9127+171.785+49.9137+170.705+49.9137+170.705C49.9137+170.705+50.4684+172.002+49.1139+177.437C47.5172+183.845+48.7018+189.735+45.1868+196.206C38.6905+208.167+25.5183+213.918+25.5183+213.918C25.5183+213.918+35.8595+219.513+44.7235+215.928C52.4253+212.814+62.949+206.55+62.949+206.55C62.949+206.55+67.8523+215.191+76.7816+220.551C82.195+223.801+81.8588+224.119+91.7456+227.316C101.61+230.506+110.625+232.203+115.315+235.283C125.482+241.96+127.204+252.989+128.41+252.456C129.918+251.789+133.735+239.531+129.484+231.634C126.944+226.915+119.857+223.06+119.857+223.06C119.857+223.06+122.396+226.567+130.469+230.258C134.114+231.924+139.632+233.109+143.853+233.52C153.351+234.446+165.445+234.616+173.751+237.944C192.602+245.496+195.382+262.862+195.382+262.862C195.382+262.862+202.994+243.578+200.822+227.596C199.614+218.713+196.685+195.091+176.115+172.517C164.91+160.22+163.836+152.057+163.836+152.057C163.836+152.057+165.266+153.686+172.911+155.615C180.556+157.544+186.374+154.688+186.374+154.688L208.415+167.77C208.415+167.77+208.026+178.535+218.481+179.337C226.529+179.421+231.032+171.523+231.032+171.523C231.032+171.523+239.673+172.888+243.955+167.748C246.043+166.188+244.135+160.762+244.135+160.762C244.135+160.762+245.705+160.465+247.709+157.508C249.364+155.064+250.878+149.829+250.196+147.136C248.04+136.378+237.439+136.821+237.439+136.821L216.57+108.14C216.57+108.14+218.353+106.553+217.964+102.876C217.068+96.5605+210.926+90.7632+210.926+90.7632C210.926+90.7632+223.85+59.7667+230.05+45.2231C236.25+30.6796+234.858+31.9265+234.858+31.9265C233.923+31.9117+231.66+32.7556+228.939+34.3759C225.74+36.2805+222.102+39.0093+222.102+39.0093L196.788+58.5553L189.117+64.9429C189.117+64.9429+197.697+60.6959+198.744+58.8549C199.792+57.0139+201.469+52.2738+201.469+52.2738L190.201+57.9732C190.201+57.9732+190.663+53.5013+192.381+49.9313C194.098+46.3612+197.071+43.693+197.071+43.693C197.071+43.693+190.204+42.44+183.058+47.1349C177.747+50.6243+173.294+57.0108+173.294+57.0108L170.756+55.7417C170.756+55.7417+170.778+49.6904+170.972+46.1934C171.304+40.238+175.773+33.7219+174.621+33.1889Z" opacity="1" stroke-width="1" stroke="#ffeae1"/>
<path opacity="1" stroke-width="1" stroke="#ffc000" d="M224.563+43.5328L199.432+89.1816C194.477+93.608+203.208+90.9814+203.208+90.9814C203.208+90.9814+210.623+99.9344+210.798+103.395C210.898+105.367+207.806+106.303+207.806+106.303L234.739+140.514C234.739+140.514+233.908+141.244+235.939+141.791C237.969+142.338+243.486+144.07+244.013+150.766C244.285+154.215+238.705+156.963+239.335+160.395C240.053+164.31+238.099+165.931+236.089+166.333C231.119+167.328+229.343+166.137+229.343+166.137C229.343+166.137+225.27+172.534+223.101+173.041C222.016+173.294+217.784+173.234+216.601+172.614C215.419+171.993+214.363+169.83+213.353+168.63C213.072+168.296+214.065+165.94+213.169+164.95C211.872+163.517+209.121+161.439+207.017+159.662C200.14+153.855+191.052+147.75+191.052+147.75C191.052+147.75+186.997+157.51+168.025+146.815C167.733+146.65+167.141+146.18+166.86+146.015C150.522+136.419+148.505+136.14+154.182+151.151C159.86+166.161+168.176+171.564+182.704+191.14C194.628+210.53+192.271+242.508+192.271+242.508C192.271+242.508+188.623+232.76+162.068+226.762C149.695+223.968+139.362+224.262+128.889+221.659C118.416+219.056+111.796+216.179+111.796+216.179C111.796+216.179+119.872+227.165+121.81+228.332C122.513+228.757+89.7422+219.553+79.791+213.355C71.2614+208.043+67.9966+198.942+67.9966+198.942C66.6044+191.949+67.109+194.379+67.109+194.379C67.109+194.379+67.0537+192.462+60.3144+198.383C53.5751+204.304+45.8734+208.965+45.8734+208.965C45.8734+208.965+52.3376+201.04+56.4074+188.943C59.107+180.92+62.3782+170.293+66.6447+164.798C76.7326+151.806+83.7068+151.284+83.7068+151.284C83.7068+151.284+71.1471+154.315+62.8366+160.227C55.2308+165.638+48.9891+164.897+48.9891+164.897C48.9891+164.897+59.2152+156.276+65.3094+145.323C72.325+132.713+71.5902+123.015+71.5902+123.015L54.083+139.212C54.083+139.212+54.2709+130.085+63.6774+119.786C71.6069+111.103+80.1367+109.861+91.5702+104.832C105.98+98.4935+112.737+85.6045+112.737+85.6045C112.737+85.6045+105.11+90.8008+99.3842+92.411C93.6587+94.0212+89.8393+92.0135+89.8393+92.0135C89.8393+92.0135+101.939+89.2321+110.808+80.0898C114.209+76.5847+122.942+66.1905+132.915+61.1112C144.584+55.1684+157.247+57.3353+157.247+57.3354L155.12+64.6883C155.12+64.6883+146.151+65.3769+139.295+67.6692C132.439+69.9616+128.424+73.7706+127.722+73.8298C127.302+73.8653+129.252+72.7256+132.173+71.3457C135.094+69.9658+138.987+68.3455+142.509+67.4208C147.192+66.1915+151.955+68.1661+151.955+68.1661C151.955+68.1661+139.701+71.5868+132.865+77.3076C125.262+83.6704+122.772+88.8608+125.219+86.3663C127.665+83.8719+132.196+80.4156+136.159+77.5259C144.085+71.7462+154.558+71.8515+154.558+71.8515L155.682+79.7871C155.682+79.7871+153.487+82.6134+152.608+86.0065C151.73+89.3997+151.459+89.1471+151.459+89.1471C151.459+89.1471+150.765+90.3408+153.087+85.2693C155.408+80.1978+156.854+79.75+156.854+79.75C156.854+79.75+155.678+74.5518+156.87+67.667C157.466+64.2246+159.565+58.7911+160.8+55.8634C162.036+52.9358+164.014+50.4963+164.014+50.4963C164.014+50.4963+164.889+56.1426+166.716+59.5443C168.382+62.6456+171.818+65.8046+172.652+69.1681C174.403+76.2212+172.639+81.3131+172.639+81.3131C172.639+81.3131+174.515+72.8289+174.515+72.8288L183.386+72.8073C183.386+72.8073+182.978+75.7618+184.634+75.4897C188.224+74.8999+224.563+43.5328+224.563+43.5328ZM186.231+51.9447C186.231+51.9447+184.872+56.8178+184.707+58.5123C184.541+60.2069+185.441+63.4667+185.441+63.4667L177.341+62.8743C177.341+62.8743+176.273+62.0128+178.495+59.2804C180.717+56.548+186.231+51.9447+186.231+51.9447ZM170.452+63.1979C170.452+63.1979+174.144+64.4458+178.859+64.6883C183.574+64.9308+189.69+64.2412+189.69+64.2412C189.69+64.2412+187+67.3699+183.211+69.0603C179.422+70.7508+174.161+70.8986+174.161+70.8986C174.161+70.8986+174.197+69.1053+173.27+67.1724C172.344+65.2395+170.452+63.1979+170.452+63.1979ZM172.586+35.0017C172.586+35.0017+166.522+37.3592+163.163+40.8434C159.804+44.3276+157.118+51.0226+157.118+51.0226C157.118+51.0226+145.243+47.3429+130.103+55.0728C119.338+60.5686+112.293+72.9002+99.133+81.1046C85.9728+89.3089+75.8246+86.4709+75.8246+86.4709C75.8246+86.4709+76.557+90.7378+79.6385+93.7557C82.72+96.7735+90.8876+98.6702+90.8876+98.6702C90.8876+98.6702+77.6168+102.132+66.1273+109.686C51.7662+120.473+49.8076+131.769+49.0885+138.108C48.3693+144.446+51.2256+148.468+52.5262+149.627C52.7745+148.133+54.7616+144.342+56.6187+141.843C59.0483+138.572+61.7319+136.543+61.7319+136.543C61.7319+136.543+61.101+142.169+55.4029+150.988C44.7676+163.658+36.3693+167.565+36.3693+167.565C36.3693+167.565+43.8344+169.881+48.7532+169.289C53.672+168.697+55.3287+167.721+55.3287+167.721C55.3287+167.721+51.4178+173.096+51.0704+179.378C51.0704+179.378+50.3505+190.571+46.8356+197.042C40.3392+209.002+29.0979+213.993+29.0979+213.993C29.0979+213.993+35.4849+217.792+44.6161+214.364C52.319+211.252+63.352+203.889+63.352+203.889C63.352+203.889+66.7529+211.114+75.4988+217.677C81.7426+222.362+84.2796+222.879+93.7865+226.27C98.2373+227.858+113.531+230.973+119.289+235.383C123.737+238.79+128.546+249.043+128.546+249.043C128.546+249.043+130.224+242.697+129.189+236.581C128.906+233.487+125.605+226.965+125.605+226.965C125.605+226.965+140.038+232.389+151.575+232.301C159.865+232.891+169.783+233.682+174.406+235.534C193.257+243.086+195.455+258.101+195.455+258.101C195.455+258.101+203.487+239.091+197.595+217.332C191.702+195.573+180.811+179.347+172.623+170.435C161.367+158.185+162.343+149.066+162.343+149.066C162.343+149.066+165.066+152.226+172.711+154.155C180.356+156.084+186.725+152.877+186.725+152.877L210.289+167.112C210.289+167.112+209.307+178.114+219.6+177.794C228.712+175.744+229.891+169.782+229.891+169.782C229.891+169.782+238.479+172.162+242.761+167.023C244.85+165.462+242.853+160.184+242.853+160.184C242.853+160.184+250.745+156.325+248.538+146.597C248.246+143.307+245.087+140.615+242.371+139.347C239.263+137.896+236.797+138.262+236.797+138.262L214.713+107.913C214.713+107.913+216.641+106.646+216.251+102.968C214.904+98.1284+207.914+90.3343+207.914+90.3343L220.065+62.8851C220.065+62.8851+232.658+36.8461+231.76+35.5686C230.861+34.291+223.597+39.8067+223.597+39.8067L196.087+61.2177C196.087+61.2177+196.942+61.1481+197.99+59.3071C199.038+57.4661+199.499+54.6486+199.499+54.6486C199.499+54.6486+197.124+56.4476+194.658+57.8503C192.193+59.2529+188.386+60.3184+188.386+60.3184C188.386+60.3184+188.369+55.8079+189.671+52.0695C190.973+48.331+193.594+45.3645+193.594+45.3645C193.594+45.3645+187.17+45.7001+182.59+49.108C178.009+52.5159+173.965+58.8873+173.965+58.8873L169.62+56.7286C169.62+56.7286+169.291+53.1322+169.248+47.9748C169.206+42.8174+172.586+35.0017+172.586+35.0017Z" fill="#ffc000" stroke-linecap="round" stroke-linejoin="round"/>
<path fill="#432b7a" d="M87.6018+206.47C85.9318+205.431+93.987+202.088+95.0453+184.959C93.8723+165.895+92.5394+162.606+94.4811+139.476C99.8087+114.775+110.032+101.492+112.402+100.774C113.857+100.333+114.059+102.307+114.059+102.307C114.059+102.307+114.137+105.586+113.737+112.063C113.336+118.539+113.707+122.934+113.952+128.342C114.473+139.823+118.1+148.157+118.1+148.157C118.1+148.157+118.141+136.479+123.89+124.706C129.166+113.902+141.777+96.1331+142.405+101.44C142.564+102.779+134.788+125.279+142.62+151.288C145.315+160.2+148.656+168.834+153.279+175.888C163.867+189.543+172.005+201.264+170.061+204.737C167.846+202.323+153.918+190.666+142.556+174.555C131.193+158.443+131.6+142.822+131.6+142.822C131.6+142.822+126.919+147.507+124.83+155.484C122.741+163.461+123.021+173.352+121.976+175.808C121.478+176.978+118.383+170.429+113.712+160.762C109.042+151.094+108.013+138.098+108.013+138.098C108.013+138.098+105.363+142.828+104.461+151.526C103.475+161.034+102.741+172.854+101.273+185.062C97.0915+202.912+89.2719+207.509+87.6018+206.47Z" opacity="1"/>
<path opacity="1" fill="#432b7a" d="M185.788+80.2944C185.788+80.2944+193.405+87.4835+196.552+86.8597L220.648+45.9748L225.036+43.9368L201.023+90.2702C201.023+90.2702+196.562+92.1002+192.743+89.6047C190.454+88.1094+188.154+86.415+186.884+84.2134C186.035+82.7409+185.788+80.2944+185.788+80.2944Z"/>
<path stroke-width="0.5" stroke-linecap="round" d="M157.719+63.3053C156.523+66.6966+155.941+70.2236+155.941+70.2236C155.941+70.2236+149.642+67.5062+141.43+73.7381C139.498+75.2045+128.835+76.719+121.498+92.8689C116.103+92.4106+100.282+107.522+94.3154+120.983C88.006+135.219+89.5796+149.887+86.7212+151.831C83.8628+153.776+77.8145+154.719+71.8698+162.736C67.4343+169.524+69.6713+171.877+68.0084+178.317C66.3454+184.756+63.8861+188.616+63.8861+188.616C63.8861+188.616+65.423+188.143+67.2903+186.819C69.2277+185.446+71.5207+183.192+72.8219+181.66C73.581+180.766+69.2053+187.908+66.3528+192.062C63.5003+196.215+61.6727+201.464+61.6727+201.464L43.0939+212.353C43.0939+212.353+44.1448+211.094+49.8181+198.451C52.1202+193.321+54.6621+182.32+57.4896+175.807C61.6304+166.269+65.7869+161.78+65.7869+161.78L44.8584+166.565L60.2783+149.682L68.4111+128.809L59.2567+135.187L51.3746+143.761C51.3746+143.761+51.2154+129.042+61.0316+119.039C70.8479+109.036+79.1684+109.035+92.349+101.739C100.643+97.1479+107.611+90.5583+108.301+90.0967C109.131+89.542+103.285+95.479+97.3407+95.9025C90.4767+96.3914+83.3067+91.4256+83.3067+91.4256C83.3067+91.4256+91.0985+91.6835+103.792+82.6593C116.486+73.6351+124.557+61.2781+136.254+57.4978C144.273+54.9063+154.047+56.1298+159.401+57.1556C160.557+57.3772+158.783+60.2875+157.719+63.3053Z" stroke="#432b7a" fill="#432b7a" opacity="1" stroke-linejoin="round"/>
<path d="M172.205+67.9295L167.605+60.7588L179.839+63.3972L190.292+64.2225L181.065+72.5154L172.52+71.736L172.205+67.9295Z" opacity="1" fill="#432b7a"/>
<path opacity="1" fill="#432b7a" d="M170.007+60.9858L174.506+62.9761L179.839+63.3972"/>
<path opacity="1" fill="#ffc000" d="M162.889+82.3746C162.653+80.1048+161.975+78.9738+161.636+78.0092C161.359+77.2199+161.653+76.8723+161.76+76.8339C162.824+76.455+166.241+79.9973+166.241+79.9973C166.241+79.9973+166.165+78.0174+165.043+75.3461C164.208+73.3596+162.243+70.7066+162.225+69.7113C162.207+68.779+162.669+68.4376+163.275+68.834C164.186+69.43+166.136+70.9312+166.136+70.9312C166.136+70.9312+162.545+62.0143+163.705+62.1447C165.16+62.3083+170.422+68.825+170.521+76.1088C170.589+81.0877+169.547+84.5162+168.025+86.9815C165.889+90.441+163.07+90.9019+163.07+90.9019C163.07+90.9019+163.318+86.5018+162.889+82.3746Z"/>
<path fill="#000000" d="M168.671+39.7975C166.072+38.5941+158.533+53.9073+158.533+53.9073C158.533+53.9073+146.967+49.3073+131.827+57.0373C121.063+62.5331+115.809+69.6178+108.583+76.5127C105.645+79.3155+101.65+82.4311+97.9499+84.8593C90.6788+89.6313+79.9976+89.2313+79.9976+89.2313C79.9976+89.2313+80.6697+93.0406+86.0312+94.8951C90.0285+96.7636+94.587+97.5779+94.587+97.5779C94.587+97.5779+91.8475+101.781+85.4377+103.391C78.7405+105.072+74.0102+106.737+67.7822+110.495C58.2479+116.249+51.4887+129.246+50.7695+135.585C50.0503+141.924+51.0021+146.449+52.3026+147.608C53.0334+143.211+55.9623+140.205+55.9623+140.205L63.529+133.15C63.529+133.15+63.9849+141.124+58.2867+149.943C49.8878+162.942+39.4937+167.183+39.4937+167.183C39.4937+167.183+44.2187+168.123+49.1375+167.53C54.0563+166.938+58.9297+165.046+58.9297+165.046C58.9297+165.046+55.2891+169.746+53.9347+175.181C52.3379+181.589+52.8503+190.074+49.3353+196.545C42.839+208.505+33.015+213.636+33.015+213.636C33.015+213.636+37.6265+215.406+45.3294+212.294C53.0324+209.183+63.8257+201.165+63.8257+201.165C63.8257+201.165+69.5446+215.697+88.8712+222.508C94.2995+224.422+110.01+229.036+116.701+230.91C124.42+233.072+127.872+244.07+127.872+244.07C127.872+244.07+128.077+235.333+125.761+230.538C123.445+225.742+119.611+222.529+119.611+222.529C119.611+222.529+132.074+228.596+145.674+229.534C153.893+230.1+168.079+230.528+176.386+233.856C195.237+241.408+195.575+253.729+195.575+253.729C195.575+253.729+199.033+237.517+196.861+221.535C195.654+212.653+187.989+189.643+168.127+168.027C156.871+155.777+157.247+143.136+157.247+143.136C157.247+143.136+166.071+150.896+173.716+152.825C181.361+154.754+187.959+151.086+187.959+151.086L212.439+166.437C212.439+166.437+209.713+176.247+220.006+175.927C229.118+173.877+228.759+168.027+228.759+168.027C228.759+168.027+237.237+171.08+241.519+165.941C243.608+164.38+241.272+161.27+241.272+161.27L241.074+158.538C241.074+158.538+248.421+157.396+247.116+147.292C245.946+140.5+236.672+139.808+236.672+139.808L211.054+106.868C211.054+106.869+214.016+106.621+213.626+102.944C212.279+98.1039+204.576+90.374+204.576+90.374L226.682+44.4677C226.682+44.4677+228.196+41.0068+227.474+40.344C226.751+39.6812+223.764+41.8345+223.764+41.8345L192.805+65.4335C192.805+65.4335+194.873+63.1509+195.921+61.3099C196.969+59.4689+197.009+58.0806+197.009+58.0806L192.113+60.4723L187.464+61.8067C187.464+61.8067+186.761+57.6167+187.662+54.2054C188.236+52.0333+189.322+49.8073+190.035+48.4767C190.442+47.7176+190.728+47.2499+190.728+47.2499C190.728+47.2499+184.804+49.2893+181.134+52.7646C177.463+56.2399+174.853+61.1112+174.853+61.1112L168.325+58.0806C168.325+58.0806+166.933+54.8468+167.089+49.6843C167.212+45.5785+169.823+40.3306+168.671+39.7975ZM223.863+45.3123L199.432+89.1816C194.477+93.608+185.773+80.2679+185.773+80.2679C185.773+80.2679+185.922+86.4088+192.509+90.5727C197.686+93.8457+202.251+92.5103+202.251+92.5103C202.251+92.5103+208.703+99.3836+208.878+102.844C208.978+104.817+204.625+105.229+204.625+105.229L233.507+140.603L233.408+142.391C233.408+142.391+241.733+143.148+242.261+149.844C242.533+153.293+237.18+156.249+237.81+159.681C238.528+163.595+237.396+164.048+235.386+164.45C230.417+165.445+224.123+162.773+220.352+162.86C216.581+162.947+220.303+164.798+220.303+164.798L227.276+167.63C227.276+167.63+225.043+170.8+222.874+171.306C221.79+171.56+220.595+171.281+219.412+170.66C218.23+170.04+217.059+169.078+216.049+167.878C215.768+167.544+215.857+165.589+214.961+164.599C213.664+163.166+211.081+161.159+208.977+159.383C202.1+153.575+193.399+146.763+193.399+146.763L194.24+140.404C194.24+140.404+187.347+156.416+168.374+145.72C151.117+135.991+152.944+125.201+152.944+125.201C152.944+125.201+160.429+132.342+166.446+135.585C172.462+138.827+177.029+138.168+177.029+138.168C177.029+138.168+174.18+137.313+170.353+135.038C166.525+132.764+161.718+129.069+157.741+123.413C151.066+113.917+148.938+102.894+148.938+102.894C148.938+102.894+147.607+109.41+147.109+115.613C146.61+121.815+146.921+138.857+152.598+153.868C158.275+168.878+166.408+171.553+180.936+191.129C192.86+210.519+190.481+236.688+190.481+236.688C190.481+236.688+187.56+228.277+161.006+222.28C148.632+219.486+140.562+207.076+137.762+202.308C132.417+193.207+132.371+189.987+132.371+189.987C132.371+189.987+132.723+199.121+135.585+205.289C137.017+208.373+140.468+212.705+143.548+216.269C146.627+219.833+149.334+222.628+149.334+222.628C149.334+222.628+137.7+222.25+127.228+219.647C116.755+217.044+107.693+211.847+107.693+211.847C107.693+211.847+113.866+223.398+115.803+224.566C116.507+224.99+116.677+225.211+116.397+225.261C114.438+225.614+90.8885+217.548+80.9373+211.35C72.4077+206.038+70.223+200.705+69.6615+198.383C69.4743+197.609+69.4636+197.191+69.4637+197.191C68.4466+192.082+69.1797+190.925+69.1797+190.925C69.1797+190.925+71.3363+186.747+72.4599+184.045C72.9811+182.791+73.695+181.223+73.0299+181.355C71.2472+182.953+67.0537+192.462+60.3144+198.383C53.5751+204.304+45.8734+208.965+45.8734+208.965C45.8734+208.965+52.3376+201.04+56.4074+188.943C59.107+180.92+62.5037+170.389+66.6447+164.798C74.7056+153.915+79.6923+155.192+86.0759+150.848C86.0759+150.848+71.1471+154.315+62.8366+160.227C55.2308+165.638+48.9891+164.897+48.9891+164.897C48.9891+164.897+59.2152+156.276+65.3094+145.323C72.325+132.713+71.5902+123.015+71.5902+123.015C71.5902+123.015+64.127+128.499+59.7502+132.548C55.3734+136.597+54.083+139.212+54.083+139.212C54.083+139.212+54.2709+130.085+63.6774+119.786C71.6069+111.103+80.1367+109.861+91.5702+104.832C105.98+98.4935+112.737+85.6045+112.737+85.6045C112.737+85.6045+105.11+90.8008+99.3842+92.411C93.6587+94.0212+89.8393+92.0135+89.8393+92.0135C89.8393+92.0135+101.939+89.2321+110.808+80.0898C114.209+76.5847+122.942+66.1905+132.915+61.1112C144.584+55.1684+157.247+57.3353+157.247+57.3354L155.12+64.6883C155.12+64.6883+146.151+65.3769+139.295+67.6692C132.439+69.9616+128.282+72.311+127.264+73.8465C127.264+73.8465+129.252+72.7256+132.173+71.3457C135.094+69.9658+138.476+68.8759+141.998+67.9513C146.682+66.722+151.955+68.1661+151.955+68.1661C151.955+68.1661+139.701+71.5868+132.865+77.3076C125.262+83.6704+121.768+93.3031+121.768+93.3031C121.768+93.3031+123.749+90.3734+125.892+88.188C128.339+85.6935+131.771+82.4827+135.734+79.593C143.66+73.8133+153.389+73.3827+153.389+73.3827L154.082+80.3382C154.082+80.3382+151.35+84.149+150.472+87.5421C149.593+90.9353+150.669+97.0314+150.669+97.0314C150.669+97.0314+151.167+92.1168+153.488+87.0453C155.81+81.9738+158.928+79.7917+158.928+79.7917C158.928+79.7917+156.796+75.0508+157.989+68.1661C158.585+64.7237+159.968+60.9586+161.203+58.0309C162.439+55.1032+163.528+53.013+163.528+53.013C163.528+53.013+164.272+57.2623+166.099+60.6641C167.765+63.7653+170.507+65.8955+171.342+69.2591C173.092+76.3122+170.452+86.1013+170.452+86.1013C170.452+86.1013+170.982+85.6788+171.638+84.8096C172.295+83.9404+173.079+82.6244+173.666+80.8847C174.841+77.4054+175.1+74.3267+175.1+74.3267L182.519+74.0782C182.519+74.0782+182.149+78.1261+183.804+77.8541C187.395+77.2642+223.863+45.3123+223.863+45.3123ZM183.755+55.3977C183.755+55.3977+183.129+57.0816+182.964+58.7761C182.798+60.4707+183.162+61.8564+183.162+61.8564L179.057+61.8067C179.057+61.8067+179.559+60.4114+180.54+59.0245C181.521+57.6377+183.755+55.3977+183.755+55.3977ZM170.452+63.1979C170.452+63.1979+174.144+64.4458+178.859+64.6883C183.574+64.9308+189.69+64.2412+189.69+64.2412C189.69+64.2412+187+67.3699+183.211+69.0603C179.422+70.7508+174.161+70.8987+174.161+70.8986C174.161+70.8986+174.197+69.1053+173.27+67.1724C172.344+65.2395+170.452+63.1978+170.452+63.1979ZM215.375+56.8841C214.675+56.7165+210.978+61.8144+207.9+66.8142C204.046+73.0765+198.56+82.9144+196.716+84.5893C196.168+85.0865+194.062+84.3596+192.886+83.0415C191.433+81.412+191.07+78.9771+190.337+79.508C189.477+80.1308+189.601+82.7669+192.344+85.7176C194.528+88.0677+197.678+88.6786+198.24+87.6586C202.824+79.3301+208.589+69.8081+208.589+69.8081C208.589+69.8081+216.072+57.0508+215.375+56.8841ZM166.591+94.2482C166.591+94.2482+165.929+98.6941+170.646+104.644C173.27+107.953+178.913+109.688+182.133+112.455C184.701+114.663+185.206+118.298+185.206+118.298C185.206+118.298+184.824+121.285+183.517+123.125C182.211+124.964+180.5+125.803+180.5+125.803C180.5+125.803+180.651+119.722+177.64+115.695C170.458+108.215+167.461+106.679+165.549+101.288C164.444+98.1729+166.591+94.2482+166.591+94.2482ZM163.585+62.2057C162.886+62.3693+165.51+71.62+165.51+71.62C165.51+71.62+162.399+68.1911+162.223+69.4635C162.048+70.7358+164.085+74.0586+164.808+76.7095C165.53+79.3603+165.114+80.0669+165.114+80.0669C165.114+80.0669+161.496+75.8696+161.515+77.4247C161.548+80.1809+163.036+90.9255+163.036+90.9255C163.036+90.9255+166.709+89.1159+167.852+84.2556C168.994+79.3952+169.506+76.2557+168.308+70.9656C167.11+65.6755+164.285+62.0421+163.585+62.2057ZM191.231+116.651C189.853+115.872+188.283+118.296+188.524+118.579C193.752+124.69+211.866+141.726+212.907+140.804C213.922+139.906+196.711+121.883+191.231+116.651ZM196.285+105.614C196.99+105.632+197.704+104.741+197.968+104.375C198.559+103.556+198.016+102.831+198.016+102.831C198.016+102.831+193.732+103.792+189.856+102.136C185.233+100.161+183.517+96.8211+178.778+95.7766C177.593+95.5154+176.479+95.5552+175.464+95.7766C172.421+96.4405+170.321+98.6581+170.321+98.6581C170.321+98.6581+176.12+98.9425+179.668+105.166C183.785+110.065+190.053+108.744+190.053+108.744M184.762+101.242C185.229+101.334+185.255+101.999+184.811+102.732C184.367+103.466+183.647+103.967+183.179+103.875C182.712+103.783+182.686+103.118+183.13+102.384C183.574+101.651+184.294+101.149+184.762+101.242ZM187.482+104.173C187.795+104.227+187.829+104.633+187.531+105.067C187.234+105.502+186.707+105.817+186.394+105.763C186.08+105.708+186.096+105.303+186.394+104.868C186.692+104.434+187.169+104.118+187.482+104.173ZM190.053+108.744L221.853+145.657C221.853+145.657+219.454+149.039+219.974+151.818C220.494+154.597+221.192+158.707+223.782+157.333C225.337+156.561+224.585+155.754+224.722+153.557C224.799+152.316+224.39+149.693+224.92+148.39C226.387+144.782+230.436+145.375+230.31+143.77C230.185+142.164+224.227+143.521+224.227+143.521C224.227+143.521+205.225+119.158+196.285+105.614M227.432+155.616C227.432+152.367+230.556+148.187+232.054+148.187C233.552+148.187+234.704+151.686+234.704+154.935C234.704+158.183+232.134+159.702+230.637+159.702C229.139+159.702+227.432+158.864+227.432+155.616ZM115.714+126.53C116.333+127.551+118.32+117.336+123.125+107.782C127.931+98.2279+135.338+91.2528+134.718+90.2314C134.099+89.21+125.399+94.6217+120.648+103.696C113.34+116.973+115.094+125.509+115.714+126.53ZM87.2879+207.031C85.6179+205.993+91.4207+201.826+92.479+184.697C91.306+165.633+89.9731+162.345+91.9148+139.215C97.2424+114.514+110.611+101.473+112.263+100.794C113.615+100.239+113.528+102.709+112.952+104.52C112.424+106.181+111.484+107.041+110.867+109.793C109.719+114.914+110.074+121.123+110.319+126.531C110.84+138.012+114.366+147.079+114.366+147.079C114.366+147.079+115.575+136.217+121.323+124.445C126.6+113.64+139.211+95.8714+139.839+101.178C139.997+102.517+130.322+125.041+138.154+151.05C140.849+159.963+144.022+168.883+148.645+175.937C160.704+190.636+171.898+201.941+170.774+205.765C168.56+203.351+151.352+190.405+139.989+174.293C128.627+158.181+125+140.107+125+140.107C125+140.107+122.347+144.28+121.729+153.711C121.263+160.838+123.014+173.352+121.969+175.808C121.471+176.978+116.275+170.632+111.605+160.965C106.934+151.297+104.391+136.226+104.391+136.226C104.391+136.226+102.545+139.897+101.643+148.595C100.657+158.103+100.174+172.592+98.707+184.8C94.5252+202.65+88.958+208.07+87.2879+207.031ZM92.1311+112.349C92.6114+112.459+90.232+111.889+87.1999+118.197C84.6212+123.562+84.5042+128.662+82.0039+133.955C81.5642+134.886+81.0509+135.823+80.4375+136.768C75.8678+143.811+69.4875+146.73+69.4875+146.73C69.4875+146.73+75.1331+140.651+79.1322+133.233C82.5805+126.836+81.2295+123.014+85.2789+117.756C88.007+113.765+91.6509+112.239+92.1311+112.349ZM81.2422+156.536C81.2422+156.536+77.1375+161.85+75.6555+165.381C74.1735+168.912+73.5523+172.27+73.5523+172.27C73.5523+172.27+75.5274+169.135+77.4286+167.356C79.3299+165.576+81.1572+165.15+81.1572+165.15C81.1572+165.15+77.6691+168.732+77.2148+174.962C76.9832+178.139+78.3694+184.41+77.3358+189.84C76.3022+195.271+73.0805+196.684+73.0805+196.684C73.0805+196.684+74.8965+190.76+74.7187+186.669C74.5409+182.579+73.8369+179.338+72.8278+179.857C72.8278+179.857+65.0975+187.712+66.2193+186.092C68.2941+183.096+68.4077+182.182+69.4139+177.199C70.4202+172.215+69.3033+169.177+71.9347+164.863C75.9568+158.268+81.2422+156.536+81.2422+156.536ZM110.57+197.455C110.57+197.455+114.516+201.827+119.68+204.692C124.845+207.557+125.791+205.224+130.38+208.57C134.968+211.917+138.449+219.258+138.449+219.258C138.449+219.258+134.161+214.283+128.674+211.321C123.188+208.358+120.871+209.798+116.088+206.226C111.304+202.654+110.57+197.455+110.57+197.455ZM142.017+192.073C142.017+192.073+143.4+194.985+146.54+197.941C147.692+199.026+149.968+200.116+151.236+201.071C155.956+204.628+156.552+204.483+160.635+208.436C164.718+212.388+163.829+216.143+163.829+216.143C163.829+216.143+160.7+211.73+155.674+208.032C150.649+204.335+150.219+205.967+145.975+201.764C141.73+197.561+142.017+192.073+142.017+192.073ZM129.486+205.395C129.486+205.395+126.913+202.048+126.07+196.698C125.227+191.349+125.9+184.059+125.9+184.059C125.9+184.059+121.339+184.997+121.806+195.27C122.697+202.325+129.486+205.395+129.486+205.395ZM174.415+195.491C174.415+195.491+178.091+203.407+179.897+209.283C181.703+215.16+181.639+218.998+181.639+218.998C181.639+218.998+179.35+218.821+177.389+219.509C175.427+220.197+175.379+220.485+173.028+220.488C170.677+220.491+167.984+219.521+167.984+219.521C167.984+219.521+170.109+221.476+173.304+222.756C176.499+224.035+178.313+223.025+181.053+224.086C183.793+225.147+185.412+226.818+185.412+226.818C185.412+226.818+186.249+217.483+183.489+209.9C180.728+202.317+174.415+195.491+174.415+195.491Z" opacity="1"/>
<path opacity="1" d="M163.585+62.2057C162.886+62.3693+165.51+71.62+165.51+71.62C165.51+71.62+162.399+68.1911+162.223+69.4635C162.048+70.7358+164.085+74.0586+164.808+76.7095C165.53+79.3603+165.114+80.0669+165.114+80.0669C165.114+80.0669+161.496+75.8696+161.515+77.4247C161.548+80.1809+163.036+90.9255+163.036+90.9255C163.036+90.9255+166.709+89.1159+167.852+84.2556C168.994+79.3952+169.506+76.2557+168.308+70.9656C167.11+65.6755+164.285+62.0421+163.585+62.2057Z" fill="none"/>
<path fill="none" d="M163.585+62.2057C162.886+62.3693+165.51+71.62+165.51+71.62C165.51+71.62+162.399+68.1911+162.223+69.4635C162.048+70.7358+164.085+74.0586+164.808+76.7095C165.53+79.3603+165.114+80.0669+165.114+80.0669C165.114+80.0669+161.496+75.8696+161.515+77.4247C161.548+80.1809+163.036+90.9255+163.036+90.9255C163.036+90.9255+166.709+89.1159+167.852+84.2556C168.994+79.3952+169.506+76.2557+168.308+70.9656C167.11+65.6755+164.285+62.0421+163.585+62.2057Z" opacity="1"/>
</g>
</g>
<g vectornator:layerName="LINEAS" id="LINEAS">
<g opacity="1">
<path stroke-linejoin="round" opacity="1" fill="#432f76" stroke="#432f76" d="M25.0645+137.505C25.0645+72.9276+77.2929+20.5777+141.72+20.5777C206.147+20.5777+258.376+72.9276+258.376+137.505C258.376+202.081+206.147+254.431+141.72+254.431C77.2929+254.431+25.0645+202.081+25.0645+137.505Z" stroke-width="1" stroke-linecap="round"/>
<path stroke="#ffeae1" stroke-linecap="round" stroke-linejoin="round" opacity="1" d="M174.621+33.1889C173.288+32.5714+165.072+36.3708+161.661+40.2365C158.424+43.9047+156.283+48.1854+156.283+48.1854C156.283+48.1854+136.362+44.0936+119.447+59.1124C119.447+59.1124+109.375+70.4913+98.673+78.148C93.7672+81.6579+88.7063+84.0939+83.8143+84.6704C78.0346+85.3516+73.7642+83.9251+73.7642+83.9251C73.7642+83.9251+73.0589+88.4683+75.9343+92.2636C78.8097+96.0589+84.84+98.891+84.84+98.891C84.84+98.891+75.786+101.699+69.558+105.458C60.0237+111.212+50.7908+120.193+47.9804+130.32C43.654+145.911+51.7944+151.624+50.5058+153.144C42.4459+162.652+32.9664+167.849+32.9664+167.849C32.9664+167.849+37.8189+170.377+42.5139+171.032C47.9127+171.785+49.9137+170.705+49.9137+170.705C49.9137+170.705+50.4684+172.002+49.1139+177.437C47.5172+183.845+48.7018+189.735+45.1868+196.206C38.6905+208.167+25.5183+213.918+25.5183+213.918C25.5183+213.918+35.8595+219.513+44.7235+215.928C52.4253+212.814+62.949+206.55+62.949+206.55C62.949+206.55+67.8523+215.191+76.7816+220.551C82.195+223.801+81.8588+224.119+91.7456+227.316C101.61+230.506+110.625+232.203+115.315+235.283C125.482+241.96+127.204+252.989+128.41+252.456C129.918+251.789+133.735+239.531+129.484+231.634C126.944+226.915+119.857+223.06+119.857+223.06C119.857+223.06+122.396+226.567+130.469+230.258C134.114+231.924+139.632+233.109+143.853+233.52C153.351+234.446+165.445+234.616+173.751+237.944C192.602+245.496+195.382+262.862+195.382+262.862C195.382+262.862+202.994+243.578+200.822+227.596C199.614+218.713+196.685+195.091+176.115+172.517C164.91+160.22+163.836+152.057+163.836+152.057C163.836+152.057+165.266+153.686+172.911+155.615C180.556+157.544+186.374+154.688+186.374+154.688L208.415+167.77C208.415+167.77+208.026+178.535+218.481+179.337C226.529+179.421+231.032+171.523+231.032+171.523C231.032+171.523+239.673+172.888+243.955+167.748C246.043+166.188+244.135+160.762+244.135+160.762C244.135+160.762+245.705+160.465+247.709+157.508C249.364+155.064+250.878+149.829+250.196+147.136C248.04+136.378+237.439+136.821+237.439+136.821L216.57+108.14C216.57+108.14+218.353+106.553+217.964+102.876C217.068+96.5605+210.926+90.7632+210.926+90.7632C210.926+90.7632+223.85+59.7667+230.05+45.2231C236.25+30.6796+234.858+31.9265+234.858+31.9265C233.923+31.9117+231.66+32.7556+228.939+34.3759C225.74+36.2805+222.102+39.0093+222.102+39.0093L196.788+58.5553L189.117+64.9429C189.117+64.9429+197.697+60.6959+198.744+58.8549C199.792+57.0139+201.469+52.2738+201.469+52.2738L190.201+57.9732C190.201+57.9732+190.663+53.5013+192.381+49.9313C194.098+46.3612+197.071+43.693+197.071+43.693C197.071+43.693+190.204+42.44+183.058+47.1349C177.747+50.6243+173.294+57.0108+173.294+57.0108L170.756+55.7417C170.756+55.7417+170.778+49.6904+170.972+46.1934C171.304+40.238+175.773+33.7219+174.621+33.1889Z" fill="#ffeae1" stroke-width="1"/>
<path stroke-linecap="round" fill="#ffc000" stroke="#ffc000" d="M224.563+43.5328L199.432+89.1816C194.477+93.608+203.208+90.9814+203.208+90.9814C203.208+90.9814+210.623+99.9344+210.798+103.395C210.898+105.367+207.806+106.303+207.806+106.303L234.739+140.514C234.739+140.514+233.908+141.244+235.939+141.791C237.969+142.338+243.486+144.07+244.013+150.766C244.285+154.215+238.705+156.963+239.335+160.395C240.053+164.31+238.099+165.931+236.089+166.333C231.119+167.328+229.343+166.137+229.343+166.137C229.343+166.137+225.27+172.534+223.101+173.041C222.016+173.294+217.784+173.234+216.601+172.614C215.419+171.993+214.363+169.83+213.353+168.63C213.072+168.296+214.065+165.94+213.169+164.95C211.872+163.517+209.121+161.439+207.017+159.662C200.14+153.855+191.052+147.75+191.052+147.75C191.052+147.75+186.997+157.51+168.025+146.815C167.733+146.65+167.141+146.18+166.86+146.015C150.522+136.419+148.505+136.14+154.182+151.151C159.86+166.161+168.176+171.564+182.704+191.14C194.628+210.53+192.271+242.508+192.271+242.508C192.271+242.508+188.623+232.76+162.068+226.762C149.695+223.968+139.362+224.262+128.889+221.659C118.416+219.056+111.796+216.179+111.796+216.179C111.796+216.179+119.872+227.165+121.81+228.332C122.513+228.757+89.7422+219.553+79.791+213.355C71.2614+208.043+67.9966+198.942+67.9966+198.942C66.6044+191.949+67.109+194.379+67.109+194.379C67.109+194.379+67.0537+192.462+60.3144+198.383C53.5751+204.304+45.8734+208.965+45.8734+208.965C45.8734+208.965+52.3376+201.04+56.4074+188.943C59.107+180.92+62.3782+170.293+66.6447+164.798C76.7326+151.806+83.7068+151.284+83.7068+151.284C83.7068+151.284+71.1471+154.315+62.8366+160.227C55.2308+165.638+48.9891+164.897+48.9891+164.897C48.9891+164.897+59.2152+156.276+65.3094+145.323C72.325+132.713+71.5902+123.015+71.5902+123.015L54.083+139.212C54.083+139.212+54.2709+130.085+63.6774+119.786C71.6069+111.103+80.1367+109.861+91.5702+104.832C105.98+98.4935+112.737+85.6045+112.737+85.6045C112.737+85.6045+105.11+90.8008+99.3842+92.411C93.6587+94.0212+89.8393+92.0135+89.8393+92.0135C89.8393+92.0135+101.939+89.2321+110.808+80.0898C114.209+76.5847+122.942+66.1905+132.915+61.1112C144.584+55.1684+157.247+57.3353+157.247+57.3354L155.12+64.6883C155.12+64.6883+146.151+65.3769+139.295+67.6692C132.439+69.9616+128.424+73.7706+127.722+73.8298C127.302+73.8653+129.252+72.7256+132.173+71.3457C135.094+69.9658+138.987+68.3455+142.509+67.4208C147.192+66.1915+151.955+68.1661+151.955+68.1661C151.955+68.1661+139.701+71.5868+132.865+77.3076C125.262+83.6704+122.772+88.8608+125.219+86.3663C127.665+83.8719+132.196+80.4156+136.159+77.5259C144.085+71.7462+154.558+71.8515+154.558+71.8515L155.682+79.7871C155.682+79.7871+153.487+82.6134+152.608+86.0065C151.73+89.3997+151.459+89.1471+151.459+89.1471C151.459+89.1471+150.765+90.3408+153.087+85.2693C155.408+80.1978+156.854+79.75+156.854+79.75C156.854+79.75+155.678+74.5518+156.87+67.667C157.466+64.2246+159.565+58.7911+160.8+55.8634C162.036+52.9358+164.014+50.4963+164.014+50.4963C164.014+50.4963+164.889+56.1426+166.716+59.5443C168.382+62.6456+171.818+65.8046+172.652+69.1681C174.403+76.2212+172.639+81.3131+172.639+81.3131C172.639+81.3131+174.515+72.8289+174.515+72.8288L183.386+72.8073C183.386+72.8073+182.978+75.7618+184.634+75.4897C188.224+74.8999+224.563+43.5328+224.563+43.5328ZM186.231+51.9447C186.231+51.9447+184.872+56.8178+184.707+58.5123C184.541+60.2069+185.441+63.4667+185.441+63.4667L177.341+62.8743C177.341+62.8743+176.273+62.0128+178.495+59.2804C180.717+56.548+186.231+51.9447+186.231+51.9447ZM170.452+63.1979C170.452+63.1979+174.144+64.4458+178.859+64.6883C183.574+64.9308+189.69+64.2412+189.69+64.2412C189.69+64.2412+187+67.3699+183.211+69.0603C179.422+70.7508+174.161+70.8986+174.161+70.8986C174.161+70.8986+174.197+69.1053+173.27+67.1724C172.344+65.2395+170.452+63.1979+170.452+63.1979ZM172.586+35.0017C172.586+35.0017+166.522+37.3592+163.163+40.8434C159.804+44.3276+157.118+51.0226+157.118+51.0226C157.118+51.0226+145.243+47.3429+130.103+55.0728C119.338+60.5686+112.293+72.9002+99.133+81.1046C85.9728+89.3089+75.8246+86.4709+75.8246+86.4709C75.8246+86.4709+76.557+90.7378+79.6385+93.7557C82.72+96.7735+90.8876+98.6702+90.8876+98.6702C90.8876+98.6702+77.6168+102.132+66.1273+109.686C51.7662+120.473+49.8076+131.769+49.0885+138.108C48.3693+144.446+51.2256+148.468+52.5262+149.627C52.7745+148.133+54.7616+144.342+56.6187+141.843C59.0483+138.572+61.7319+136.543+61.7319+136.543C61.7319+136.543+61.101+142.169+55.4029+150.988C44.7676+163.658+36.3693+167.565+36.3693+167.565C36.3693+167.565+43.8344+169.881+48.7532+169.289C53.672+168.697+55.3287+167.721+55.3287+167.721C55.3287+167.721+51.4178+173.096+51.0704+179.378C51.0704+179.378+50.3505+190.571+46.8356+197.042C40.3392+209.002+29.0979+213.993+29.0979+213.993C29.0979+213.993+35.4849+217.792+44.6161+214.364C52.319+211.252+63.352+203.889+63.352+203.889C63.352+203.889+66.7529+211.114+75.4988+217.677C81.7426+222.362+84.2796+222.879+93.7865+226.27C98.2373+227.858+113.531+230.973+119.289+235.383C123.737+238.79+128.546+249.043+128.546+249.043C128.546+249.043+130.224+242.697+129.189+236.581C128.906+233.487+125.605+226.965+125.605+226.965C125.605+226.965+140.038+232.389+151.575+232.301C159.865+232.891+169.783+233.682+174.406+235.534C193.257+243.086+195.455+258.101+195.455+258.101C195.455+258.101+203.487+239.091+197.595+217.332C191.702+195.573+180.811+179.347+172.623+170.435C161.367+158.185+162.343+149.066+162.343+149.066C162.343+149.066+165.066+152.226+172.711+154.155C180.356+156.084+186.725+152.877+186.725+152.877L210.289+167.112C210.289+167.112+209.307+178.114+219.6+177.794C228.712+175.744+229.891+169.782+229.891+169.782C229.891+169.782+238.479+172.162+242.761+167.023C244.85+165.462+242.853+160.184+242.853+160.184C242.853+160.184+250.745+156.325+248.538+146.597C248.246+143.307+245.087+140.615+242.371+139.347C239.263+137.896+236.797+138.262+236.797+138.262L214.713+107.913C214.713+107.913+216.641+106.646+216.251+102.968C214.904+98.1284+207.914+90.3343+207.914+90.3343L220.065+62.8851C220.065+62.8851+232.658+36.8461+231.76+35.5686C230.861+34.291+223.597+39.8067+223.597+39.8067L196.087+61.2177C196.087+61.2177+196.942+61.1481+197.99+59.3071C199.038+57.4661+199.499+54.6486+199.499+54.6486C199.499+54.6486+197.124+56.4476+194.658+57.8503C192.193+59.2529+188.386+60.3184+188.386+60.3184C188.386+60.3184+188.369+55.8079+189.671+52.0695C190.973+48.331+193.594+45.3645+193.594+45.3645C193.594+45.3645+187.17+45.7001+182.59+49.108C178.009+52.5159+173.965+58.8873+173.965+58.8873L169.62+56.7286C169.62+56.7286+169.291+53.1322+169.248+47.9748C169.206+42.8174+172.586+35.0017+172.586+35.0017Z" opacity="1" stroke-width="1" stroke-linejoin="round"/>
<path fill="#432b7a" opacity="1" d="M87.6018+206.47C85.9318+205.431+93.987+202.088+95.0453+184.959C93.8723+165.895+92.5394+162.606+94.4811+139.476C99.8087+114.775+110.032+101.492+112.402+100.774C113.857+100.333+114.059+102.307+114.059+102.307C114.059+102.307+114.137+105.586+113.737+112.063C113.336+118.539+113.707+122.934+113.952+128.342C114.473+139.823+118.1+148.157+118.1+148.157C118.1+148.157+118.141+136.479+123.89+124.706C129.166+113.902+141.777+96.1331+142.405+101.44C142.564+102.779+134.788+125.279+142.62+151.288C145.315+160.2+148.656+168.834+153.279+175.888C163.867+189.543+172.005+201.264+170.061+204.737C167.846+202.323+153.918+190.666+142.556+174.555C131.193+158.443+131.6+142.822+131.6+142.822C131.6+142.822+126.919+147.507+124.83+155.484C122.741+163.461+123.021+173.352+121.976+175.808C121.478+176.978+118.383+170.429+113.712+160.762C109.042+151.094+108.013+138.098+108.013+138.098C108.013+138.098+105.363+142.828+104.461+151.526C103.475+161.034+102.741+172.854+101.273+185.062C97.0915+202.912+89.2719+207.509+87.6018+206.47Z"/>
<path fill="#432b7a" d="M185.788+80.2944C185.788+80.2944+193.405+87.4835+196.552+86.8597L220.648+45.9748L225.036+43.9368L201.023+90.2702C201.023+90.2702+196.562+92.1002+192.743+89.6047C190.454+88.1094+188.154+86.415+186.884+84.2134C186.035+82.7409+185.788+80.2944+185.788+80.2944Z" opacity="1"/>
<path opacity="1" stroke-width="0.5" stroke="#432b7a" stroke-linejoin="round" d="M157.719+63.3053C156.523+66.6966+155.941+70.2236+155.941+70.2236C155.941+70.2236+149.642+67.5062+141.43+73.7381C139.498+75.2045+128.835+76.719+121.498+92.8689C116.103+92.4106+100.282+107.522+94.3154+120.983C88.006+135.219+89.5796+149.887+86.7212+151.831C83.8628+153.776+77.8145+154.719+71.8698+162.736C67.4343+169.524+69.6713+171.877+68.0084+178.317C66.3454+184.756+63.8861+188.616+63.8861+188.616C63.8861+188.616+65.423+188.143+67.2903+186.819C69.2277+185.446+71.5207+183.192+72.8219+181.66C73.581+180.766+69.2053+187.908+66.3528+192.062C63.5003+196.215+61.6727+201.464+61.6727+201.464L43.0939+212.353C43.0939+212.353+44.1448+211.094+49.8181+198.451C52.1202+193.321+54.6621+182.32+57.4896+175.807C61.6304+166.269+65.7869+161.78+65.7869+161.78L44.8584+166.565L60.2783+149.682L68.4111+128.809L59.2567+135.187L51.3746+143.761C51.3746+143.761+51.2154+129.042+61.0316+119.039C70.8479+109.036+79.1684+109.035+92.349+101.739C100.643+97.1479+107.611+90.5583+108.301+90.0967C109.131+89.542+103.285+95.479+97.3407+95.9025C90.4767+96.3914+83.3067+91.4256+83.3067+91.4256C83.3067+91.4256+91.0985+91.6835+103.792+82.6593C116.486+73.6351+124.557+61.2781+136.254+57.4978C144.273+54.9063+154.047+56.1298+159.401+57.1556C160.557+57.3772+158.783+60.2875+157.719+63.3053Z" stroke-linecap="round" fill="#432b7a"/>
<path d="M172.205+67.9295L167.605+60.7588L179.839+63.3972L190.292+64.2225L181.065+72.5154L172.52+71.736L172.205+67.9295Z" fill="#432b7a" opacity="1"/>
<path opacity="1" fill="#432b7a" d="M170.007+60.9858L174.506+62.9761L179.839+63.3972"/>
<path fill="#ffc000" d="M162.889+82.3746C162.653+80.1048+161.975+78.9738+161.636+78.0092C161.359+77.2199+161.653+76.8723+161.76+76.8339C162.824+76.455+166.241+79.9973+166.241+79.9973C166.241+79.9973+166.165+78.0174+165.043+75.3461C164.208+73.3596+162.243+70.7066+162.225+69.7113C162.207+68.779+162.669+68.4376+163.275+68.834C164.186+69.43+166.136+70.9312+166.136+70.9312C166.136+70.9312+162.545+62.0143+163.705+62.1447C165.16+62.3083+170.422+68.825+170.521+76.1088C170.589+81.0877+169.547+84.5162+168.025+86.9815C165.889+90.441+163.07+90.9019+163.07+90.9019C163.07+90.9019+163.318+86.5018+162.889+82.3746Z" opacity="1"/>
<path d="M168.671+39.7975C166.072+38.5941+158.533+53.9073+158.533+53.9073C158.533+53.9073+146.967+49.3073+131.827+57.0373C121.063+62.5331+115.809+69.6178+108.583+76.5127C105.645+79.3155+101.65+82.4311+97.9499+84.8593C90.6788+89.6313+79.9976+89.2313+79.9976+89.2313C79.9976+89.2313+80.6697+93.0406+86.0312+94.8951C90.0285+96.7636+94.587+97.5779+94.587+97.5779C94.587+97.5779+91.8475+101.781+85.4377+103.391C78.7405+105.072+74.0102+106.737+67.7822+110.495C58.2479+116.249+51.4887+129.246+50.7695+135.585C50.0503+141.924+51.0021+146.449+52.3026+147.608C53.0334+143.211+55.9623+140.205+55.9623+140.205L63.529+133.15C63.529+133.15+63.9849+141.124+58.2867+149.943C49.8878+162.942+39.4937+167.183+39.4937+167.183C39.4937+167.183+44.2187+168.123+49.1375+167.53C54.0563+166.938+58.9297+165.046+58.9297+165.046C58.9297+165.046+55.2891+169.746+53.9347+175.181C52.3379+181.589+52.8503+190.074+49.3353+196.545C42.839+208.505+33.015+213.636+33.015+213.636C33.015+213.636+37.6265+215.406+45.3294+212.294C53.0324+209.183+63.8257+201.165+63.8257+201.165C63.8257+201.165+69.5446+215.697+88.8712+222.508C94.2995+224.422+110.01+229.036+116.701+230.91C124.42+233.072+127.872+244.07+127.872+244.07C127.872+244.07+128.077+235.333+125.761+230.538C123.445+225.742+119.611+222.529+119.611+222.529C119.611+222.529+132.074+228.596+145.674+229.534C153.893+230.1+168.079+230.528+176.386+233.856C195.237+241.408+195.575+253.729+195.575+253.729C195.575+253.729+199.033+237.517+196.861+221.535C195.654+212.653+187.989+189.643+168.127+168.027C156.871+155.777+157.247+143.136+157.247+143.136C157.247+143.136+166.071+150.896+173.716+152.825C181.361+154.754+187.959+151.086+187.959+151.086L212.439+166.437C212.439+166.437+209.713+176.247+220.006+175.927C229.118+173.877+228.759+168.027+228.759+168.027C228.759+168.027+237.237+171.08+241.519+165.941C243.608+164.38+241.272+161.27+241.272+161.27L241.074+158.538C241.074+158.538+248.421+157.396+247.116+147.292C245.946+140.5+236.672+139.808+236.672+139.808L211.054+106.868C211.054+106.869+214.016+106.621+213.626+102.944C212.279+98.1039+204.576+90.374+204.576+90.374L226.682+44.4677C226.682+44.4677+228.196+41.0068+227.474+40.344C226.751+39.6812+223.764+41.8345+223.764+41.8345L192.805+65.4335C192.805+65.4335+194.873+63.1509+195.921+61.3099C196.969+59.4689+197.009+58.0806+197.009+58.0806L192.113+60.4723L187.464+61.8067C187.464+61.8067+186.761+57.6167+187.662+54.2054C188.236+52.0333+189.322+49.8073+190.035+48.4767C190.442+47.7176+190.728+47.2499+190.728+47.2499C190.728+47.2499+184.804+49.2893+181.134+52.7646C177.463+56.2399+174.853+61.1112+174.853+61.1112L168.325+58.0806C168.325+58.0806+166.933+54.8468+167.089+49.6843C167.212+45.5785+169.823+40.3306+168.671+39.7975ZM223.863+45.3123L199.432+89.1816C194.477+93.608+185.773+80.2679+185.773+80.2679C185.773+80.2679+185.922+86.4088+192.509+90.5727C197.686+93.8457+202.251+92.5103+202.251+92.5103C202.251+92.5103+208.703+99.3836+208.878+102.844C208.978+104.817+204.625+105.229+204.625+105.229L233.507+140.603L233.408+142.391C233.408+142.391+241.733+143.148+242.261+149.844C242.533+153.293+237.18+156.249+237.81+159.681C238.528+163.595+237.396+164.048+235.386+164.45C230.417+165.445+224.123+162.773+220.352+162.86C216.581+162.947+220.303+164.798+220.303+164.798L227.276+167.63C227.276+167.63+225.043+170.8+222.874+171.306C221.79+171.56+220.595+171.281+219.412+170.66C218.23+170.04+217.059+169.078+216.049+167.878C215.768+167.544+215.857+165.589+214.961+164.599C213.664+163.166+211.081+161.159+208.977+159.383C202.1+153.575+193.399+146.763+193.399+146.763L194.24+140.404C194.24+140.404+187.347+156.416+168.374+145.72C151.117+135.991+152.944+125.201+152.944+125.201C152.944+125.201+160.429+132.342+166.446+135.585C172.462+138.827+177.029+138.168+177.029+138.168C177.029+138.168+174.18+137.313+170.353+135.038C166.525+132.764+161.718+129.069+157.741+123.413C151.066+113.917+148.938+102.894+148.938+102.894C148.938+102.894+147.607+109.41+147.109+115.613C146.61+121.815+146.921+138.857+152.598+153.868C158.275+168.878+166.408+171.553+180.936+191.129C192.86+210.519+190.481+236.688+190.481+236.688C190.481+236.688+187.56+228.277+161.006+222.28C148.632+219.486+140.562+207.076+137.762+202.308C132.417+193.207+132.371+189.987+132.371+189.987C132.371+189.987+132.723+199.121+135.585+205.289C137.017+208.373+140.468+212.705+143.548+216.269C146.627+219.833+149.334+222.628+149.334+222.628C149.334+222.628+137.7+222.25+127.228+219.647C116.755+217.044+107.693+211.847+107.693+211.847C107.693+211.847+113.866+223.398+115.803+224.566C116.507+224.99+116.677+225.211+116.397+225.261C114.438+225.614+90.8885+217.548+80.9373+211.35C72.4077+206.038+70.223+200.705+69.6615+198.383C69.4743+197.609+69.4636+197.191+69.4637+197.191C68.4466+192.082+69.1797+190.925+69.1797+190.925C69.1797+190.925+71.3363+186.747+72.4599+184.045C72.9811+182.791+73.695+181.223+73.0299+181.355C71.2472+182.953+67.0537+192.462+60.3144+198.383C53.5751+204.304+45.8734+208.965+45.8734+208.965C45.8734+208.965+52.3376+201.04+56.4074+188.943C59.107+180.92+62.5037+170.389+66.6447+164.798C74.7056+153.915+79.6923+155.192+86.0759+150.848C86.0759+150.848+71.1471+154.315+62.8366+160.227C55.2308+165.638+48.9891+164.897+48.9891+164.897C48.9891+164.897+59.2152+156.276+65.3094+145.323C72.325+132.713+71.5902+123.015+71.5902+123.015C71.5902+123.015+64.127+128.499+59.7502+132.548C55.3734+136.597+54.083+139.212+54.083+139.212C54.083+139.212+54.2709+130.085+63.6774+119.786C71.6069+111.103+80.1367+109.861+91.5702+104.832C105.98+98.4935+112.737+85.6045+112.737+85.6045C112.737+85.6045+105.11+90.8008+99.3842+92.411C93.6587+94.0212+89.8393+92.0135+89.8393+92.0135C89.8393+92.0135+101.939+89.2321+110.808+80.0898C114.209+76.5847+122.942+66.1905+132.915+61.1112C144.584+55.1684+157.247+57.3353+157.247+57.3354L155.12+64.6883C155.12+64.6883+146.151+65.3769+139.295+67.6692C132.439+69.9616+128.282+72.311+127.264+73.8465C127.264+73.8465+129.252+72.7256+132.173+71.3457C135.094+69.9658+138.476+68.8759+141.998+67.9513C146.682+66.722+151.955+68.1661+151.955+68.1661C151.955+68.1661+139.701+71.5868+132.865+77.3076C125.262+83.6704+121.768+93.3031+121.768+93.3031C121.768+93.3031+123.749+90.3734+125.892+88.188C128.339+85.6935+131.771+82.4827+135.734+79.593C143.66+73.8133+153.389+73.3827+153.389+73.3827L154.082+80.3382C154.082+80.3382+151.35+84.149+150.472+87.5421C149.593+90.9353+150.669+97.0314+150.669+97.0314C150.669+97.0314+151.167+92.1168+153.488+87.0453C155.81+81.9738+158.928+79.7917+158.928+79.7917C158.928+79.7917+156.796+75.0508+157.989+68.1661C158.585+64.7237+159.968+60.9586+161.203+58.0309C162.439+55.1032+163.528+53.013+163.528+53.013C163.528+53.013+164.272+57.2623+166.099+60.6641C167.765+63.7653+170.507+65.8955+171.342+69.2591C173.092+76.3122+170.452+86.1013+170.452+86.1013C170.452+86.1013+170.982+85.6788+171.638+84.8096C172.295+83.9404+173.079+82.6244+173.666+80.8847C174.841+77.4054+175.1+74.3267+175.1+74.3267L182.519+74.0782C182.519+74.0782+182.149+78.1261+183.804+77.8541C187.395+77.2642+223.863+45.3123+223.863+45.3123ZM183.755+55.3977C183.755+55.3977+183.129+57.0816+182.964+58.7761C182.798+60.4707+183.162+61.8564+183.162+61.8564L179.057+61.8067C179.057+61.8067+179.559+60.4114+180.54+59.0245C181.521+57.6377+183.755+55.3977+183.755+55.3977ZM170.452+63.1979C170.452+63.1979+174.144+64.4458+178.859+64.6883C183.574+64.9308+189.69+64.2412+189.69+64.2412C189.69+64.2412+187+67.3699+183.211+69.0603C179.422+70.7508+174.161+70.8987+174.161+70.8986C174.161+70.8986+174.197+69.1053+173.27+67.1724C172.344+65.2395+170.452+63.1978+170.452+63.1979ZM215.375+56.8841C214.675+56.7165+210.978+61.8144+207.9+66.8142C204.046+73.0765+198.56+82.9144+196.716+84.5893C196.168+85.0865+194.062+84.3596+192.886+83.0415C191.433+81.412+191.07+78.9771+190.337+79.508C189.477+80.1308+189.601+82.7669+192.344+85.7176C194.528+88.0677+197.678+88.6786+198.24+87.6586C202.824+79.3301+208.589+69.8081+208.589+69.8081C208.589+69.8081+216.072+57.0508+215.375+56.8841ZM166.591+94.2482C166.591+94.2482+165.929+98.6941+170.646+104.644C173.27+107.953+178.913+109.688+182.133+112.455C184.701+114.663+185.206+118.298+185.206+118.298C185.206+118.298+184.824+121.285+183.517+123.125C182.211+124.964+180.5+125.803+180.5+125.803C180.5+125.803+180.651+119.722+177.64+115.695C170.458+108.215+167.461+106.679+165.549+101.288C164.444+98.1729+166.591+94.2482+166.591+94.2482ZM163.585+62.2057C162.886+62.3693+165.51+71.62+165.51+71.62C165.51+71.62+162.399+68.1911+162.223+69.4635C162.048+70.7358+164.085+74.0586+164.808+76.7095C165.53+79.3603+165.114+80.0669+165.114+80.0669C165.114+80.0669+161.496+75.8696+161.515+77.4247C161.548+80.1809+163.036+90.9255+163.036+90.9255C163.036+90.9255+166.709+89.1159+167.852+84.2556C168.994+79.3952+169.506+76.2557+168.308+70.9656C167.11+65.6755+164.285+62.0421+163.585+62.2057ZM191.231+116.651C189.853+115.872+188.283+118.296+188.524+118.579C193.752+124.69+211.866+141.726+212.907+140.804C213.922+139.906+196.711+121.883+191.231+116.651ZM196.285+105.614C196.99+105.632+197.704+104.741+197.968+104.375C198.559+103.556+198.016+102.831+198.016+102.831C198.016+102.831+193.732+103.792+189.856+102.136C185.233+100.161+183.517+96.8211+178.778+95.7766C177.593+95.5154+176.479+95.5552+175.464+95.7766C172.421+96.4405+170.321+98.6581+170.321+98.6581C170.321+98.6581+176.12+98.9425+179.668+105.166C183.785+110.065+190.053+108.744+190.053+108.744M184.762+101.242C185.229+101.334+185.255+101.999+184.811+102.732C184.367+103.466+183.647+103.967+183.179+103.875C182.712+103.783+182.686+103.118+183.13+102.384C183.574+101.651+184.294+101.149+184.762+101.242ZM187.482+104.173C187.795+104.227+187.829+104.633+187.531+105.067C187.234+105.502+186.707+105.817+186.394+105.763C186.08+105.708+186.096+105.303+186.394+104.868C186.692+104.434+187.169+104.118+187.482+104.173ZM190.053+108.744L221.853+145.657C221.853+145.657+219.454+149.039+219.974+151.818C220.494+154.597+221.192+158.707+223.782+157.333C225.337+156.561+224.585+155.754+224.722+153.557C224.799+152.316+224.39+149.693+224.92+148.39C226.387+144.782+230.436+145.375+230.31+143.77C230.185+142.164+224.227+143.521+224.227+143.521C224.227+143.521+205.225+119.158+196.285+105.614M227.432+155.616C227.432+152.367+230.556+148.187+232.054+148.187C233.552+148.187+234.704+151.686+234.704+154.935C234.704+158.183+232.134+159.702+230.637+159.702C229.139+159.702+227.432+158.864+227.432+155.616ZM115.714+126.53C116.333+127.551+118.32+117.336+123.125+107.782C127.931+98.2279+135.338+91.2528+134.718+90.2314C134.099+89.21+125.399+94.6217+120.648+103.696C113.34+116.973+115.094+125.509+115.714+126.53ZM87.2879+207.031C85.6179+205.993+91.4207+201.826+92.479+184.697C91.306+165.633+89.9731+162.345+91.9148+139.215C97.2424+114.514+110.611+101.473+112.263+100.794C113.615+100.239+113.528+102.709+112.952+104.52C112.424+106.181+111.484+107.041+110.867+109.793C109.719+114.914+110.074+121.123+110.319+126.531C110.84+138.012+114.366+147.079+114.366+147.079C114.366+147.079+115.575+136.217+121.323+124.445C126.6+113.64+139.211+95.8714+139.839+101.178C139.997+102.517+130.322+125.041+138.154+151.05C140.849+159.963+144.022+168.883+148.645+175.937C160.704+190.636+171.898+201.941+170.774+205.765C168.56+203.351+151.352+190.405+139.989+174.293C128.627+158.181+125+140.107+125+140.107C125+140.107+122.347+144.28+121.729+153.711C121.263+160.838+123.014+173.352+121.969+175.808C121.471+176.978+116.275+170.632+111.605+160.965C106.934+151.297+104.391+136.226+104.391+136.226C104.391+136.226+102.545+139.897+101.643+148.595C100.657+158.103+100.174+172.592+98.707+184.8C94.5252+202.65+88.958+208.07+87.2879+207.031ZM92.1311+112.349C92.6114+112.459+90.232+111.889+87.1999+118.197C84.6212+123.562+84.5042+128.662+82.0039+133.955C81.5642+134.886+81.0509+135.823+80.4375+136.768C75.8678+143.811+69.4875+146.73+69.4875+146.73C69.4875+146.73+75.1331+140.651+79.1322+133.233C82.5805+126.836+81.2295+123.014+85.2789+117.756C88.007+113.765+91.6509+112.239+92.1311+112.349ZM81.2422+156.536C81.2422+156.536+77.1375+161.85+75.6555+165.381C74.1735+168.912+73.5523+172.27+73.5523+172.27C73.5523+172.27+75.5274+169.135+77.4286+167.356C79.3299+165.576+81.1572+165.15+81.1572+165.15C81.1572+165.15+77.6691+168.732+77.2148+174.962C76.9832+178.139+78.3694+184.41+77.3358+189.84C76.3022+195.271+73.0805+196.684+73.0805+196.684C73.0805+196.684+74.8965+190.76+74.7187+186.669C74.5409+182.579+73.8369+179.338+72.8278+179.857C72.8278+179.857+65.0975+187.712+66.2193+186.092C68.2941+183.096+68.4077+182.182+69.4139+177.199C70.4202+172.215+69.3033+169.177+71.9347+164.863C75.9568+158.268+81.2422+156.536+81.2422+156.536ZM110.57+197.455C110.57+197.455+114.516+201.827+119.68+204.692C124.845+207.557+125.791+205.224+130.38+208.57C134.968+211.917+138.449+219.258+138.449+219.258C138.449+219.258+134.161+214.283+128.674+211.321C123.188+208.358+120.871+209.798+116.088+206.226C111.304+202.654+110.57+197.455+110.57+197.455ZM142.017+192.073C142.017+192.073+143.4+194.985+146.54+197.941C147.692+199.026+149.968+200.116+151.236+201.071C155.956+204.628+156.552+204.483+160.635+208.436C164.718+212.388+163.829+216.143+163.829+216.143C163.829+216.143+160.7+211.73+155.674+208.032C150.649+204.335+150.219+205.967+145.975+201.764C141.73+197.561+142.017+192.073+142.017+192.073ZM129.486+205.395C129.486+205.395+126.913+202.048+126.07+196.698C125.227+191.349+125.9+184.059+125.9+184.059C125.9+184.059+121.339+184.997+121.806+195.27C122.697+202.325+129.486+205.395+129.486+205.395ZM174.415+195.491C174.415+195.491+178.091+203.407+179.897+209.283C181.703+215.16+181.639+218.998+181.639+218.998C181.639+218.998+179.35+218.821+177.389+219.509C175.427+220.197+175.379+220.485+173.028+220.488C170.677+220.491+167.984+219.521+167.984+219.521C167.984+219.521+170.109+221.476+173.304+222.756C176.499+224.035+178.313+223.025+181.053+224.086C183.793+225.147+185.412+226.818+185.412+226.818C185.412+226.818+186.249+217.483+183.489+209.9C180.728+202.317+174.415+195.491+174.415+195.491Z" opacity="1" fill="#000000"/>
<path d="M163.585+62.2057C162.886+62.3693+165.51+71.62+165.51+71.62C165.51+71.62+162.399+68.1911+162.223+69.4635C162.048+70.7358+164.085+74.0586+164.808+76.7095C165.53+79.3603+165.114+80.0669+165.114+80.0669C165.114+80.0669+161.496+75.8696+161.515+77.4247C161.548+80.1809+163.036+90.9255+163.036+90.9255C163.036+90.9255+166.709+89.1159+167.852+84.2556C168.994+79.3952+169.506+76.2557+168.308+70.9656C167.11+65.6755+164.285+62.0421+163.585+62.2057Z" opacity="1" fill="none"/>
<path fill="none" d="M163.585+62.2057C162.886+62.3693+165.51+71.62+165.51+71.62C165.51+71.62+162.399+68.1911+162.223+69.4635C162.048+70.7358+164.085+74.0586+164.808+76.7095C165.53+79.3603+165.114+80.0669+165.114+80.0669C165.114+80.0669+161.496+75.8696+161.515+77.4247C161.548+80.1809+163.036+90.9255+163.036+90.9255C163.036+90.9255+166.709+89.1159+167.852+84.2556C168.994+79.3952+169.506+76.2557+168.308+70.9656C167.11+65.6755+164.285+62.0421+163.585+62.2057Z" opacity="1"/>
</g>
</g>
</svg>
